<svg width="120" height="32" viewBox="0 0 120 32" fill="none" xmlns="http://www.w3.org/2000/svg">
<rect width="120" height="32" rx="5" fill="#2F80ED"/>
<path d="M46.2539 14.0602L46.2832 14.7633C46.748 14.2164 47.375 13.943 48.1641 13.943C49.0508 13.943 49.6543 14.2828 49.9746 14.9625C50.1855 14.6578 50.459 14.4117 50.7949 14.2242C51.1348 14.0367 51.5352 13.943 51.9961 13.943C53.3867 13.943 54.0938 14.6793 54.1172 16.152V20.4H53.0332V16.2164C53.0332 15.7633 52.9297 15.4254 52.7227 15.2028C52.5156 14.9762 52.168 14.8629 51.6797 14.8629C51.2773 14.8629 50.9434 14.984 50.6777 15.2262C50.4121 15.4645 50.2578 15.7867 50.2148 16.193V20.4H49.125V16.2457C49.125 15.3239 48.6738 14.8629 47.7715 14.8629C47.0605 14.8629 46.5742 15.1656 46.3125 15.7711V20.4H45.2285V14.0602H46.2539ZM55.4707 17.1715C55.4707 16.5504 55.5918 15.9918 55.834 15.4957C56.0801 14.9996 56.4199 14.6168 56.8535 14.3473C57.291 14.0778 57.7891 13.943 58.3477 13.943C59.2109 13.943 59.9082 14.2418 60.4395 14.8395C60.9746 15.4371 61.2422 16.2321 61.2422 17.2242V17.3004C61.2422 17.9176 61.123 18.4723 60.8848 18.9645C60.6504 19.4528 60.3125 19.8336 59.8711 20.1071C59.4336 20.3805 58.9297 20.5172 58.3594 20.5172C57.5 20.5172 56.8027 20.2184 56.2676 19.6207C55.7363 19.0231 55.4707 18.2321 55.4707 17.2477V17.1715ZM56.5605 17.3004C56.5605 18.0035 56.7227 18.568 57.0469 18.9938C57.375 19.4196 57.8125 19.6324 58.3594 19.6324C58.9102 19.6324 59.3477 19.4176 59.6719 18.9879C59.9961 18.5543 60.1582 17.9489 60.1582 17.1715C60.1582 16.4762 59.9922 15.9137 59.6602 15.484C59.332 15.0504 58.8945 14.8336 58.3477 14.8336C57.8125 14.8336 57.3809 15.0465 57.0527 15.4723C56.7246 15.8981 56.5605 16.5074 56.5605 17.3004ZM65.666 15.0328C65.502 15.0055 65.3242 14.9918 65.1328 14.9918C64.4219 14.9918 63.9395 15.2946 63.6855 15.9V20.4H62.6016V14.0602H63.6562L63.6738 14.7926C64.0293 14.2262 64.5332 13.943 65.1855 13.943C65.3965 13.943 65.5566 13.9703 65.666 14.025V15.0328ZM69.1816 20.5172C68.3223 20.5172 67.623 20.236 67.084 19.6735C66.5449 19.1071 66.2754 18.3512 66.2754 17.4059V17.2067C66.2754 16.5778 66.3945 16.0172 66.6328 15.525C66.875 15.0289 67.2109 14.6422 67.6406 14.3649C68.0742 14.0836 68.543 13.943 69.0469 13.943C69.8711 13.943 70.5117 14.2145 70.9688 14.7574C71.4258 15.3004 71.6543 16.0778 71.6543 17.0895V17.5406H67.3594C67.375 18.1656 67.5566 18.6715 67.9043 19.0582C68.2559 19.441 68.7012 19.6324 69.2402 19.6324C69.623 19.6324 69.9473 19.5543 70.2129 19.3981C70.4785 19.2418 70.7109 19.0348 70.9102 18.777L71.5723 19.2926C71.041 20.109 70.2441 20.5172 69.1816 20.5172ZM69.0469 14.8336C68.6094 14.8336 68.2422 14.9938 67.9453 15.3141C67.6484 15.6305 67.4648 16.0758 67.3945 16.65H70.5703V16.568C70.5391 16.0172 70.3906 15.5914 70.125 15.2906C69.8594 14.986 69.5 14.8336 69.0469 14.8336ZM72.9375 19.8317C72.9375 19.6442 72.9922 19.4879 73.1016 19.3629C73.2148 19.2379 73.3828 19.1754 73.6055 19.1754C73.8281 19.1754 73.9961 19.2379 74.1094 19.3629C74.2266 19.4879 74.2852 19.6442 74.2852 19.8317C74.2852 20.0114 74.2266 20.1617 74.1094 20.2828C73.9961 20.4039 73.8281 20.4645 73.6055 20.4645C73.3828 20.4645 73.2148 20.4039 73.1016 20.2828C72.9922 20.1617 72.9375 20.0114 72.9375 19.8317ZM76.1016 19.8317C76.1016 19.6442 76.1562 19.4879 76.2656 19.3629C76.3789 19.2379 76.5469 19.1754 76.7695 19.1754C76.9922 19.1754 77.1602 19.2379 77.2734 19.3629C77.3906 19.4879 77.4492 19.6442 77.4492 19.8317C77.4492 20.0114 77.3906 20.1617 77.2734 20.2828C77.1602 20.4039 76.9922 20.4645 76.7695 20.4645C76.5469 20.4645 76.3789 20.4039 76.2656 20.2828C76.1562 20.1617 76.1016 20.0114 76.1016 19.8317ZM79.2656 19.8317C79.2656 19.6442 79.3203 19.4879 79.4297 19.3629C79.543 19.2379 79.7109 19.1754 79.9336 19.1754C80.1562 19.1754 80.3242 19.2379 80.4375 19.3629C80.5547 19.4879 80.6133 19.6442 80.6133 19.8317C80.6133 20.0114 80.5547 20.1617 80.4375 20.2828C80.3242 20.4039 80.1562 20.4645 79.9336 20.4645C79.7109 20.4645 79.543 20.4039 79.4297 20.2828C79.3203 20.1617 79.2656 20.0114 79.2656 19.8317Z" fill="white"/>
</svg>
