<svg width="80" height="24" viewBox="0 0 80 24" fill="none" xmlns="http://www.w3.org/2000/svg">
<path d="M0 0H76C78.2091 0 80 1.79086 80 4V20C80 22.2091 78.2091 24 76 24H0V0Z" fill="#2F80ED"/>
<path d="M26.5527 14.3184C26.5527 14.0254 26.4414 13.7988 26.2188 13.6387C26 13.4746 25.6152 13.334 25.0645 13.2168C24.5176 13.0996 24.082 12.959 23.7578 12.7949C23.4375 12.6309 23.1992 12.4355 23.043 12.209C22.8906 11.9824 22.8145 11.7129 22.8145 11.4004C22.8145 10.8809 23.0332 10.4414 23.4707 10.082C23.9121 9.72266 24.4746 9.54297 25.1582 9.54297C25.877 9.54297 26.459 9.72852 26.9043 10.0996C27.3535 10.4707 27.5781 10.9453 27.5781 11.5234H26.4883C26.4883 11.2266 26.3613 10.9707 26.1074 10.7559C25.8574 10.541 25.541 10.4336 25.1582 10.4336C24.7637 10.4336 24.4551 10.5195 24.2324 10.6914C24.0098 10.8633 23.8984 11.0879 23.8984 11.3652C23.8984 11.627 24.002 11.8242 24.209 11.957C24.416 12.0898 24.7891 12.2168 25.3281 12.3379C25.8711 12.459 26.3105 12.6035 26.6465 12.7715C26.9824 12.9395 27.2305 13.1426 27.3906 13.3809C27.5547 13.6152 27.6367 13.9023 27.6367 14.2422C27.6367 14.8086 27.4102 15.2637 26.957 15.6074C26.5039 15.9473 25.916 16.1172 25.1934 16.1172C24.6855 16.1172 24.2363 16.0273 23.8457 15.8477C23.4551 15.668 23.1484 15.418 22.9258 15.0977C22.707 14.7734 22.5977 14.4238 22.5977 14.0488H23.6816C23.7012 14.4121 23.8457 14.7012 24.1152 14.916C24.3887 15.127 24.748 15.2324 25.1934 15.2324C25.6035 15.2324 25.9316 15.1504 26.1777 14.9863C26.4277 14.8184 26.5527 14.5957 26.5527 14.3184ZM31.6797 16.1172C30.8203 16.1172 30.1211 15.8359 29.582 15.2734C29.043 14.707 28.7734 13.9512 28.7734 13.0059V12.8066C28.7734 12.1777 28.8926 11.6172 29.1309 11.125C29.373 10.6289 29.709 10.2422 30.1387 9.96484C30.5723 9.68359 31.041 9.54297 31.5449 9.54297C32.3691 9.54297 33.0098 9.81445 33.4668 10.3574C33.9238 10.9004 34.1523 11.6777 34.1523 12.6895V13.1406H29.8574C29.873 13.7656 30.0547 14.2715 30.4023 14.6582C30.7539 15.041 31.1992 15.2324 31.7383 15.2324C32.1211 15.2324 32.4453 15.1543 32.7109 14.998C32.9766 14.8418 33.209 14.6348 33.4082 14.377L34.0703 14.8926C33.5391 15.709 32.7422 16.1172 31.6797 16.1172ZM31.5449 10.4336C31.1074 10.4336 30.7402 10.5938 30.4434 10.9141C30.1465 11.2305 29.9629 11.6758 29.8926 12.25H33.0684V12.168C33.0371 11.6172 32.8887 11.1914 32.623 10.8906C32.3574 10.5859 31.998 10.4336 31.5449 10.4336ZM39.3262 16C39.2637 15.875 39.2129 15.6523 39.1738 15.332C38.6699 15.8555 38.0684 16.1172 37.3691 16.1172C36.7441 16.1172 36.2305 15.9414 35.8281 15.5898C35.4297 15.2344 35.2305 14.7852 35.2305 14.2422C35.2305 13.582 35.4805 13.0703 35.9805 12.707C36.4844 12.3398 37.1914 12.1562 38.1016 12.1562H39.1562V11.6582C39.1562 11.2793 39.043 10.9785 38.8164 10.7559C38.5898 10.5293 38.2559 10.416 37.8145 10.416C37.4277 10.416 37.1035 10.5137 36.8418 10.709C36.5801 10.9043 36.4492 11.1406 36.4492 11.418H35.3594C35.3594 11.1016 35.4707 10.7969 35.6934 10.5039C35.9199 10.207 36.2246 9.97266 36.6074 9.80078C36.9941 9.62891 37.418 9.54297 37.8789 9.54297C38.6094 9.54297 39.1816 9.72656 39.5957 10.0938C40.0098 10.457 40.2246 10.959 40.2402 11.5996V14.5176C40.2402 15.0996 40.3145 15.5625 40.4629 15.9062V16H39.3262ZM37.5273 15.1738C37.8672 15.1738 38.1895 15.0859 38.4941 14.9102C38.7988 14.7344 39.0195 14.5059 39.1562 14.2246V12.9238H38.3066C36.9785 12.9238 36.3145 13.3125 36.3145 14.0898C36.3145 14.4297 36.4277 14.6953 36.6543 14.8867C36.8809 15.0781 37.1719 15.1738 37.5273 15.1738ZM45.0039 10.6328C44.8398 10.6055 44.6621 10.5918 44.4707 10.5918C43.7598 10.5918 43.2773 10.8945 43.0234 11.5V16H41.9395V9.66016H42.9941L43.0117 10.3926C43.3672 9.82617 43.8711 9.54297 44.5234 9.54297C44.7344 9.54297 44.8945 9.57031 45.0039 9.625V10.6328ZM48.4316 15.2324C48.8184 15.2324 49.1562 15.1152 49.4453 14.8809C49.7344 14.6465 49.8945 14.3535 49.9258 14.002H50.9512C50.9316 14.3652 50.8066 14.7109 50.5762 15.0391C50.3457 15.3672 50.0371 15.6289 49.6504 15.8242C49.2676 16.0195 48.8613 16.1172 48.4316 16.1172C47.5684 16.1172 46.8809 15.8301 46.3691 15.2559C45.8613 14.6777 45.6074 13.8887 45.6074 12.8887V12.707C45.6074 12.0898 45.7207 11.541 45.9473 11.0605C46.1738 10.5801 46.498 10.207 46.9199 9.94141C47.3457 9.67578 47.8477 9.54297 48.4258 9.54297C49.1367 9.54297 49.7266 9.75586 50.1953 10.1816C50.668 10.6074 50.9199 11.1602 50.9512 11.8398H49.9258C49.8945 11.4297 49.7383 11.0938 49.457 10.832C49.1797 10.5664 48.8359 10.4336 48.4258 10.4336C47.875 10.4336 47.4473 10.6328 47.1426 11.0312C46.8418 11.4258 46.6914 11.998 46.6914 12.748V12.9531C46.6914 13.6836 46.8418 14.2461 47.1426 14.6406C47.4434 15.0352 47.873 15.2324 48.4316 15.2324ZM53.2539 10.4277C53.7344 9.83789 54.3594 9.54297 55.1289 9.54297C56.4688 9.54297 57.1445 10.2988 57.1562 11.8105V16H56.0723V11.8047C56.0684 11.3477 55.9629 11.0098 55.7559 10.791C55.5527 10.5723 55.2344 10.4629 54.8008 10.4629C54.4492 10.4629 54.1406 10.5566 53.875 10.7441C53.6094 10.9316 53.4023 11.1777 53.2539 11.4824V16H52.1699V7H53.2539V10.4277Z" fill="white"/>
</svg>
